<?xml version="1.0" encoding="utf-8"?><svg viewBox="0 0 76 75" xmlns="http://www.w3.org/2000/svg" xmlns:xlink="http://www.w3.org/1999/xlink"><style>:root>svg{display:none}:root>svg:target{display:block}</style><svg viewBox="0 0 20 20" id="fullscreen" xmlns="http://www.w3.org/2000/svg"><path d="M0 0v6h3V3h3V0H0zm3 14H0v6h6v-3H3v-3zM17 0h-3v3h3v3h3V0h-3zm0 17h-3v3h6v-6h-3v3z"/></svg><svg viewBox="0 0 27 35" id="htmlacademy" xmlns="http://www.w3.org/2000/svg"><path d="M13.6 0h-.1L0 1.4v24.7l13.5 8 13.4-8V1.4L13.6 0zM25 12.1L13.5 5.3v-.1h-.1l-.1-.1v.1L1.9 12.1v-9l11.5-1.2L25 3.1v9zM13.4 6.8l11.5 6.7-4.5 2.6-7.1-4.2v1.4l5.9 3.5-.9.5-5-3v1.4l3.8 2.3-.8.5-3-1.8v1.4l1.9 1.1-1.8 1.1L2 13.6l11.4-6.8zM1.9 15.1l11.4 6.8v1l-7.9-4.7v1.4l8 4.8v1.1l-8-4.7v1.4l8 4.8 8.1-4.9v-5.2l3.4-2v10l-11.5 6.9L1.9 25v-9.9z"/></svg><svg fill="none" viewBox="0 0 76 68" id="icon-burger" xmlns="http://www.w3.org/2000/svg"><path d="M71.711 45.332H4.29C1.895 45.332 0 47.303 0 49.57v3.45c0 2.266 1.895 4.138 4.289 4.138h.997v.986c0 5.42 4.488 9.756 9.874 9.756h45.68c5.486 0 9.874-4.435 9.874-9.756v-.986h.997c2.294 0 4.289-1.872 4.289-4.237v-3.45c0-2.168-1.895-4.139-4.289-4.139zm-3.89 12.812c0 3.745-3.091 6.8-6.881 6.8H15.06c-3.79 0-6.882-3.055-6.882-6.8v-.986h59.644v.986zm5.187-5.223c0 .69-.599 1.28-1.297 1.28H4.29c-.698 0-1.297-.59-1.297-1.28v-3.45c0-.59.599-1.182 1.297-1.182h67.52c.698 0 1.297.591 1.297 1.281v3.35h-.1zM16.157 37.35l5.386 3.941 5.486-3.941 5.485 3.941L38 37.35l5.386 3.941 5.485-3.941 5.486 3.941 5.486-3.941 5.485 3.941 6.284-4.631-1.696-2.365-4.588 3.252-5.485-3.942-5.486 3.942-5.486-3.942-5.485 3.942L38 33.605l-5.486 3.942-5.485-3.942-5.486 3.942-5.386-3.942-5.485 3.942-4.588-3.252-1.795 2.365 6.383 4.632 5.485-3.942zm54.557-6.701c0-.592.1-2.563 0-2.957C70.016 12.32 55.654 0 38 0 20.346 0 5.884 12.319 5.186 27.692v2.957h65.528zM38 2.956c15.958 0 29.123 11.038 29.722 24.736H8.178C8.877 13.994 22.042 2.956 38 2.956z" fill="#81B3D2"/><path d="M38 16.753a1.983 1.983 0 001.995-1.97A1.983 1.983 0 0038 12.81a1.983 1.983 0 00-1.995 1.971c0 1.089.893 1.971 1.995 1.971zm-7.979-4.829a1.983 1.983 0 001.995-1.971 1.983 1.983 0 00-1.995-1.97 1.983 1.983 0 00-1.995 1.97c0 1.089.893 1.971 1.995 1.971zm15.958 0a1.983 1.983 0 001.995-1.971 1.983 1.983 0 00-1.995-1.97 1.983 1.983 0 00-1.995 1.97c0 1.089.893 1.971 1.995 1.971z" fill="#81B3D2"/></svg><svg fill="none" viewBox="0 0 23 23" id="icon-cross" xmlns="http://www.w3.org/2000/svg"><path d="M22.2 2.8L19.4 0l-8.3 8.3L2.8 0 0 2.8l8.3 8.3L0 19.4l2.8 2.8 8.3-8.3 8.3 8.3 2.8-2.8-8.3-8.3 8.3-8.3z" fill="#fff"/></svg><svg fill="none" viewBox="0 0 9 19" id="icon-facebook" xmlns="http://www.w3.org/2000/svg"><path d="M6.3 3.4h2.4V0H5.8C2.7.2 1.5 2.4 1.9 6.1H0v3.5h2v9.3h3.8V9.6h2.9V6.1H5.8c0-1 0-2.4.5-2.7z" fill="#fff"/></svg><svg fill="none" viewBox="0 0 64 75" id="icon-gift" xmlns="http://www.w3.org/2000/svg"><path d="M61.156 22.117H36.368C50.184 15.319 51.302 11.02 50.794 8.62c-1.118-3.899-5.69-6.898-9.956-5.298-5.587 2.099-7.111 10.296-8.635 16.194-1.93-5.998-3.759-13.595-8.127-17.494-1.219-1.1-3.047-2.2-5.79-2-4.064.4-9.854 5.299-7.416 10.797 2.235 5.299 9.65 8.697 14.628 11.397H2.844A2.817 2.817 0 000 25.016v11.196c0 1.6 1.32 2.8 2.844 2.8h.305V75h57.905V39.011h.102c1.625 0 2.844-1.3 2.844-2.799V25.016c0-1.6-1.32-2.9-2.844-2.9zM42.464 5.822c2.133-.3 4.977 1.3 5.282 3.199.406 2.699-3.352 5.198-5.08 6.298-2.539 1.7-4.977 2.599-7.314 3.999.813-3.7 2.54-12.896 7.112-13.496zm-22.96 9.797c-2.234-1.5-6.5-4.399-6.4-7.698.102-3.599 5.791-6.498 8.839-3.799 3.86 3.3 5.689 10.997 7.111 16.395-3.25-1.6-6.298-2.799-9.55-4.898zM25.499 72H6.095V39.01h19.403V72zm0-35.989H3.048V25.116h22.45v10.896zM35.659 72h-7.214V25.116h7.213V72zm22.348 0H38.705V39.01h19.403V72h-.102zm2.946-35.989H38.705V25.116h22.247v10.896z" fill="#81B3D2"/></svg><svg fill="none" viewBox="0 0 75 72" id="icon-house" xmlns="http://www.w3.org/2000/svg"><path d="M29.619 64.939h16.064V41.17H29.619v23.768zm13.152-2.884h-10.24v-18h10.14v18h.1z" fill="#81B3D2"/><path d="M72.892 39.182L75 37.094l-9.94-9.845V.398H51.205v13.127L37.45 0 0 37.193l2.108 2.089 7.832-7.757v37.591H6.024V72h64.157v-2.884h-5.12v-37.69l7.83 7.756zm-18.775-35.8h7.931v20.983l-7.931-7.857V3.381zm8.032 65.635H12.952V28.54L37.45 4.177 62.048 28.54v40.476h.1z" fill="#81B3D2"/><path d="M29.92 27.05c0 4.275 3.514 7.756 7.73 7.756 4.318 0 7.832-3.48 7.832-7.757 0-4.276-3.514-7.657-7.831-7.657-4.318 0-7.731 3.38-7.731 7.657zm7.73-4.973c2.712 0 5.02 2.188 5.02 4.972 0 2.685-2.208 4.972-5.02 4.972-2.71 0-5.02-2.187-5.02-4.972 0-2.685 2.31-4.972 5.02-4.972zM19.98 41.17h-3.012v3.88h3.012v-3.88zm5.924 0h-3.012v3.88h3.012v-3.88zm-5.924 5.969h-3.012v3.878h3.012V47.14zm5.924 0h-3.012v3.878h3.012V47.14zm26.104-5.969h-3.012v3.88h3.012v-3.88zm6.024 0H55.02v3.88h3.012v-3.88zm-6.024 5.969h-3.012v3.878h3.012V47.14zm6.024 0H55.02v3.878h3.012V47.14z" fill="#81B3D2"/></svg><svg fill="none" viewBox="0 0 23 22" id="icon-menu" xmlns="http://www.w3.org/2000/svg"><path d="M22.9 0H0v4h22.9V0zm0 9H0v4h22.9V9zm0 9H0v4h22.9v-4z" fill="#81B3D2"/></svg><svg fill="none" viewBox="0 0 18 15" id="icon-twitter" xmlns="http://www.w3.org/2000/svg"><path d="M11.3.167c1.7-.5 3.1.2 3.7 1.1.7-.2 1.4-.5 2.1-.7 0 .8-.5 1.5-.9 1.7.7.2 1.3-.5 1.3-.5-.2 1-1 1.7-1.6 2-.2 6.6-3.3 11-10.4 10.8H5c-.4 0-4.3-.4-5-1.8 2.3.2 4-.4 4.8-1.1-1-.3-2.8-.5-3.1-2.9.4.1.6.2 1.3.1-1.2-.8-2.6-1.5-2.5-3.7.3.3 1.1.5 1.4.5-.7-.2-2-3.3-.9-4.8 1.9 1.8 3.8 3.5 7.4 3.7.1-2.3 1.1-3.8 2.9-4.4z" fill="#fff"/></svg><svg fill="none" viewBox="0 0 20 14" id="icon-youtube" xmlns="http://www.w3.org/2000/svg"><path d="M17.1 0H2.8C1.3 0 0 1.3 0 2.8v8.3C0 12.7 1.3 14 2.8 14h14.3c1.6 0 2.8-1.3 2.8-2.8V2.8C20 1.3 18.7 0 17.1 0zM7 10.4V3.6L13.8 7 7 10.4z" fill="#fff"/></svg><svg fill="none" viewBox="0 0 23 21" id="like-icon" xmlns="http://www.w3.org/2000/svg"><path opacity=".3" d="M12.964 3.78l-.628 3.045-.627 2.625h9.096v2.205L17.773 18.9h-9.41V8.4l4.6-4.62zM2.09 10.5v8.4-8.4zM13.8 0L6.9 6.93c-.418.315-.627.84-.627 1.47v10.5a2.1 2.1 0 002.09 2.1h9.41c.836 0 1.568-.525 1.881-1.26l3.137-7.455c.104-.21.104-.525.104-.735v-2.1H23a2.1 2.1 0 00-2.09-2.1h-6.587l1.045-4.83v-.315c0-.42-.209-.84-.418-1.155L13.8 0zM4.182 8.4H0V21h4.182V8.4z" fill="#000"/></svg><svg fill="none" viewBox="0 0 23 21" id="like-icon-white" xmlns="http://www.w3.org/2000/svg"><path d="M12.964 3.78l-.628 3.045-.627 2.625h9.096v2.205L17.773 18.9h-9.41V8.4l4.6-4.62zM2.09 10.5v8.4-8.4zM13.8 0L6.9 6.93c-.418.315-.627.84-.627 1.47v10.5a2.1 2.1 0 002.09 2.1h9.41c.836 0 1.568-.525 1.881-1.26l3.137-7.455c.104-.21.104-.525.104-.735v-2.1H23a2.1 2.1 0 00-2.09-2.1h-6.587l1.045-4.83v-.315c0-.42-.209-.84-.418-1.155L13.8 0zM4.182 8.4H0V21h4.182V8.4z" fill="#fff"/></svg><svg fill="none" viewBox="0 0 16 12" id="mail" xmlns="http://www.w3.org/2000/svg"><path d="M8 8c-.3 0-.5-.1-1-.3L0 4v7c0 .5.5 1 1 1h14c.5 0 1-.5 1-1V4L9 7.7c-.5.2-.7.3-1 .3zm7-8H1C.5 0 0 .5 0 1v.8L8 6l8-4.2V1c0-.5-.5-1-1-1z" fill="#000"/></svg><svg fill="none" viewBox="0 0 18 18" id="phone" xmlns="http://www.w3.org/2000/svg"><path d="M3.6 7.8c1.4 2.8 3.8 5.1 6.6 6.6l2.2-2.2c.3-.3.7-.4 1-.2 1.1.4 2.3.6 3.6.6.6 0 1 .4 1 1V17c0 .6-.4 1-1 1C7.6 18 0 10.4 0 1c0-.6.4-1 1-1h3.5c.6 0 1 .4 1 1 0 1.2.2 2.4.6 3.6.1.3 0 .7-.2 1L3.6 7.8z" fill="#010101"/></svg><svg viewBox="0 0 16 20" id="replay" xmlns="http://www.w3.org/2000/svg"><path d="M8 4V0L3 5l5 5V6c3.3 0 6 2.7 6 6s-2.7 6-6 6-6-2.7-6-6H0c0 4.4 3.6 8 8 8s8-3.6 8-8-3.6-8-8-8z"/></svg><svg viewBox="0 0 32 20" id="subtitles" xmlns="http://www.w3.org/2000/svg"><path d="M29 0H3C1.3 0 0 1.3 0 3v14c0 1.7 1.3 3 3 3h26c1.7 0 3-1.3 3-3V3c0-1.7-1.3-3-3-3zM14.4 15.9c-.5.1-1.1.1-1.7.1-.7 0-1.4-.1-2-.3-.6-.2-1.2-.6-1.6-1-.4-.4-.8-1.1-1.1-1.9-.3-.8-.4-1.7-.4-2.8 0-1.1.2-2.1.5-2.9.3-.8.7-1.4 1.2-1.9s1.1-.8 1.7-1c.5-.1 1.2-.2 1.8-.2.7 0 1.2 0 1.7.1s.8.2 1.1.3l-.4 1.9-.9-.3H13c-.9 0-1.6.3-2.2 1-.6.7-.8 1.7-.8 3 0 .6.1 1.1.2 1.6s.3.9.6 1.3c.3.3.6.6 1 .8.4.2.9.3 1.4.3.5 0 .9 0 1.3-.1.3-.1.6-.2.9-.4l.5 1.8c-.5.3-1 .4-1.5.6zm8.7 0c-.5.1-1.1.1-1.7.1-.7 0-1.4-.1-2-.3-.6-.2-1.2-.6-1.6-1-.5-.5-.9-1.1-1.1-1.9-.3-.8-.4-1.7-.4-2.8 0-1.1.2-2.1.5-2.9.3-.8.7-1.4 1.2-1.9s1.1-.8 1.7-1c.5-.1 1.2-.2 1.8-.2.7 0 1.2 0 1.7.1s.8.2 1.1.3l-.4 1.9L23 6h-1.3c-.9 0-1.6.3-2.2 1-.6.7-.8 1.7-.8 3 0 .6.1 1.1.2 1.6s.3.9.6 1.3c.3.3.6.6 1 .8.4.2.9.3 1.4.3.5 0 .9 0 1.3-.1.3-.1.6-.2.9-.4l.5 1.8c-.5.3-1 .4-1.5.6z"/></svg><svg fill="none" viewBox="0 0 24 17" id="tick" xmlns="http://www.w3.org/2000/svg"><path d="M22.925 1.325l-1.1-1.1c-.3-.3-.9-.3-1.2 0l-11.9 11.9-6.2-6.2c-.3-.3-.9-.3-1.2 0l-1.1 1.1c-.3.3-.3.9 0 1.2l7.8 7.8c.2.2.4.2.6.2.2 0 .4-.1.6-.2l13.5-13.5c.5-.3.5-.8.2-1.2z" fill="#000"/></svg></svg>